<svg width="70" height="78" viewBox="0 0 70 78" fill="none" xmlns="http://www.w3.org/2000/svg">
<ellipse opacity="0.4" cx="34.5" cy="74" rx="11.5" ry="4" fill="#181818"/>
<path d="M21.7518 48.3639L21.7516 48.3635C17.9959 42.7887 13.0954 35.4301 13.0945 26.6998C13.1246 20.9084 15.4449 15.3642 19.5489 11.2777C23.6533 7.19065 29.2082 4.89387 35.0005 4.88892C40.7959 4.88895 46.3556 7.18356 50.4641 11.2711C54.5721 15.3582 56.895 20.9054 56.925 26.7001C56.924 35.4304 52.024 42.7685 48.286 48.3461L48.2822 48.3517L47.6072 49.3739C43.9132 54.7259 39.9512 59.8878 35.7364 64.84C35.7361 64.8403 35.7359 64.8405 35.7357 64.8408L35.0195 65.6795L34.3032 64.8407C34.3029 64.8404 34.3027 64.8401 34.3024 64.8398C30.0861 59.887 26.1233 54.7239 22.4292 49.3703L21.7518 48.3639ZM27.3579 35.6262C29.62 37.1377 32.2794 37.9445 35 37.9445C38.6482 37.9445 42.147 36.4952 44.7267 33.9156C47.3064 31.3359 48.7556 27.8371 48.7556 24.1889C48.7556 21.4683 47.9488 18.8088 46.4374 16.5467C44.9259 14.2846 42.7776 12.5216 40.2641 11.4804C37.7506 10.4393 34.9848 10.1669 32.3165 10.6977C29.6481 11.2284 27.1971 12.5385 25.2734 14.4623C23.3496 16.386 22.0396 18.837 21.5088 21.5053C20.978 24.1737 21.2504 26.9394 22.2916 29.4529C23.3327 31.9664 25.0958 34.1148 27.3579 35.6262Z" fill="#599D03" stroke="#181818" stroke-width="2"/>
<path d="M41.2526 24.1888C41.2526 27.6421 38.4532 30.4416 34.9998 30.4416C31.5465 30.4416 28.7471 27.6421 28.7471 24.1888C28.7471 20.7355 31.5465 17.936 34.9998 17.936C38.4532 17.936 41.2526 20.7355 41.2526 24.1888Z" fill="#599D03" stroke="#181818" stroke-width="2"/>
</svg>
